# xmcd
#
# Track frame offsets:
#	182
#	37227
#	56987
#	94575
#	119330
#	162240
#	193995
#	205385
#
# Disc length: 3428 seconds
#
# Revision: 0
# Processed by: cddbd v1.5.2PL0 Copyright (c) Steve Scherf et al.
# Submitted via: audiograbber 1.83.01
#
DISCID=790d6208
DTITLE=Dream Theater - Original Album Classics [CD 1) - Images And Words
DYEAR=1992
DGENRE=Progressive Metal
TTITLE0=Pull Me Under
TTITLE1=Another Day
TTITLE2=Take The Time
TTITLE3=Surrounded
TTITLE4=Metropolis - Part I: "The Miracle And The Sleeper"
TTITLE5=Under A Glass Moon
TTITLE6=Wait For Sleep
TTITLE7=Learning To Live
EXTD=
EXTT0=
EXTT1=
EXTT2=
EXTT3=
EXTT4=
EXTT5=
EXTT6=
EXTT7=
PLAYORDER=
